<svg width="24" height="24" viewBox="0 0 24 24" fill="none" xmlns="http://www.w3.org/2000/svg">
<path d="M5 22C4.45 22 3.97933 21.8043 3.588 21.413C3.19667 21.0216 3.00067 20.5506 3 20V5.99997C3 5.44997 3.196 4.9793 3.588 4.58797C3.98 4.19664 4.45067 4.00064 5 3.99997H6V1.99997H8V3.99997H16V1.99997H18V3.99997H19C19.55 3.99997 20.021 4.19597 20.413 4.58797C20.805 4.97997 21.0007 5.45064 21 5.99997V20C21 20.55 20.8043 21.021 20.413 21.413C20.0217 21.805 19.5507 22.0006 19 22H5ZM5 20H19V9.99997H5V20ZM5 7.99997H19V5.99997H5V7.99997ZM12 14C11.7167 14 11.4793 13.904 11.288 13.712C11.0967 13.52 11.0007 13.2826 11 13C10.9993 12.7173 11.0953 12.48 11.288 12.288C11.4807 12.096 11.718 12 12 12C12.282 12 12.5197 12.096 12.713 12.288C12.9063 12.48 13.002 12.7173 13 13C12.998 13.2826 12.902 13.5203 12.712 13.713C12.522 13.9056 12.2847 14.0013 12 14ZM8 14C7.71667 14 7.47933 13.904 7.288 13.712C7.09667 13.52 7.00067 13.2826 7 13C6.99933 12.7173 7.09533 12.48 7.288 12.288C7.48067 12.096 7.718 12 8 12C8.282 12 8.51967 12.096 8.713 12.288C8.90633 12.48 9.002 12.7173 9 13C8.998 13.2826 8.902 13.5203 8.712 13.713C8.522 13.9056 8.28467 14.0013 8 14ZM16 14C15.7167 14 15.4793 13.904 15.288 13.712C15.0967 13.52 15.0007 13.2826 15 13C14.9993 12.7173 15.0953 12.48 15.288 12.288C15.4807 12.096 15.718 12 16 12C16.282 12 16.5197 12.096 16.713 12.288C16.9063 12.48 17.002 12.7173 17 13C16.998 13.2826 16.902 13.5203 16.712 13.713C16.522 13.9056 16.2847 14.0013 16 14ZM12 18C11.7167 18 11.4793 17.904 11.288 17.712C11.0967 17.52 11.0007 17.2826 11 17C10.9993 16.7173 11.0953 16.48 11.288 16.288C11.4807 16.096 11.718 16 12 16C12.282 16 12.5197 16.096 12.713 16.288C12.9063 16.48 13.002 16.7173 13 17C12.998 17.2826 12.902 17.5203 12.712 17.713C12.522 17.9056 12.2847 18.0013 12 18ZM8 18C7.71667 18 7.47933 17.904 7.288 17.712C7.09667 17.52 7.00067 17.2826 7 17C6.99933 16.7173 7.09533 16.48 7.288 16.288C7.288 16.288 7.718 16 8 16C8.282 16 8.51967 16.096 8.713 16.288C8.90633 16.48 9.002 16.7173 9 17C8.998 17.2826 8.902 17.5203 8.712 17.713C8.522 17.9056 8.28467 18.0013 8 18ZM16 18C15.7167 18 15.4793 17.904 15.288 17.712C15.0967 17.52 15.0007 17.2826 15 17C14.9993 16.7173 15.0953 16.48 15.288 16.288C15.4807 16.096 15.718 16 16 16C16.282 16 16.5197 16.096 16.713 16.288C16.9063 16.48 17.002 16.7173 17 17C16.998 17.2826 16.902 17.5203 16.712 17.713C16.522 17.9056 16.2847 18.0013 16 18Z" fill="#FD2600"/>
</svg>
